<svg xmlns="http://www.w3.org/2000/svg" viewBox="500 -900 100 100" width="24" height="24"><path d="M535.42 -885.42 L519.32 -869.32 L569.32 -869.32 L585.42 -885.42 L535.42 -885.42 Z" fill="#ffda63" fill-rule="evenodd" /><path d="M516.67 -869.34 L516.67 -820.84 L569.35 -820.84 L569.35 -869.34 L516.67 -869.34 Z" fill="#ff8a00" fill-rule="evenodd" /><path d="M584.85 -836.93 L568.75 -820.83 L569.32 -869.32 L585.42 -885.42 L584.85 -836.93 Z" fill="#ed3f00" fill-rule="evenodd" /><path d="M518.75 -869.32 L518.75 -818.75 L568.75 -818.75 L585.42 -835.42 L585.41 -885.42 L534.85 -885.42 L518.75 -869.32 Z" fill="none" stroke="#4f2100" stroke-width="4.20" /><path d="M568.75 -870.83 L568.75 -816.67" fill="none" stroke="#000000" stroke-width="4.20" stroke-opacity="0.290" /><path d="M516.67 -868.75 L570.83 -868.75" fill="none" stroke="#000000" stroke-width="4.20" stroke-opacity="0.290" /><path d="M516.67 -856.25 L570.83 -856.25" fill="none" stroke="#000000" stroke-width="4.20" stroke-opacity="0.290" /><path d="M516.67 -843.75 L570.83 -843.75" fill="none" stroke="#000000" stroke-width="4.20" stroke-opacity="0.290" /><path d="M516.67 -831.25 L570.83 -831.25" fill="none" stroke="#000000" stroke-width="4.20" stroke-opacity="0.290" /><path d="M527.08 -877.08 L575.0 -877.08" fill="none" stroke="#000000" stroke-width="4.20" stroke-opacity="0.290" /><path d="M568.75 -868.75 L583.33 -883.33" fill="none" stroke="#000000" stroke-width="4.20" stroke-opacity="0.290" /><path d="M568.75 -856.25 L583.33 -870.83" fill="none" stroke="#000000" stroke-width="4.20" stroke-opacity="0.290" /><path d="M568.75 -843.75 L583.33 -858.33" fill="none" stroke="#000000" stroke-width="4.20" stroke-opacity="0.290" /><path d="M568.75 -831.25 L583.33 -845.83" fill="none" stroke="#000000" stroke-width="4.20" stroke-opacity="0.290" /><path d="M556.25 -870.83 L556.25 -816.67" fill="none" stroke="#000000" stroke-width="4.20" stroke-opacity="0.290" /><path d="M543.75 -870.83 L543.75 -816.67" fill="none" stroke="#000000" stroke-width="4.20" stroke-opacity="0.290" /><path d="M531.25 -870.83 L531.25 -816.67" fill="none" stroke="#000000" stroke-width="4.20" stroke-opacity="0.290" /><path d="M531.25 -868.75 L545.83 -883.33" fill="none" stroke="#000000" stroke-width="4.20" stroke-opacity="0.290" /><path d="M543.75 -868.75 L558.33 -883.33" fill="none" stroke="#000000" stroke-width="4.20" stroke-opacity="0.290" /><path d="M556.25 -868.75 L570.83 -883.33" fill="none" stroke="#000000" stroke-width="4.20" stroke-opacity="0.290" /><path d="M577.08 -879.17 L577.08 -827.08" fill="none" stroke="#000000" stroke-width="4.20" stroke-opacity="0.290" /></svg>