<svg xmlns="http://www.w3.org/2000/svg" viewBox="800 -800 100 100" width="24" height="24"><defs><linearGradient id="g42" gradientUnits="userSpaceOnUse" x1="827.08" y1="-750.0" x2="806.25" y2="-739.58"><stop offset="0" stop-color="#000000" stop-opacity="1.000" /><stop offset="1" stop-color="#000000" stop-opacity="0.000" /></linearGradient><linearGradient id="g43" gradientUnits="userSpaceOnUse" x1="872.92" y1="-731.25" x2="893.75" y2="-710.42"><stop offset="0" stop-color="#000000" stop-opacity="1.000" /><stop offset="1" stop-color="#000000" stop-opacity="0.000" /></linearGradient><linearGradient id="g44" gradientUnits="userSpaceOnUse" x1="852.08" y1="-775.0" x2="858.33" y2="-795.83"><stop offset="0" stop-color="#000000" stop-opacity="1.000" /><stop offset="1" stop-color="#000000" stop-opacity="0.000" /></linearGradient><mask id="m37" maskUnits="userSpaceOnUse" x="843.9" y="-804.0" width="60.1" height="103.8"><rect x="843.9" y="-804.0" width="60.1" height="103.8" fill="url(#tg36)" /></mask><mask id="m39" maskUnits="userSpaceOnUse" x="796.0" y="-804.0" width="68.4" height="68.4"><rect x="796.0" y="-804.0" width="68.4" height="68.4" fill="url(#tg38)" /></mask><mask id="m41" maskUnits="userSpaceOnUse" x="796.0" y="-760.3" width="108.0" height="64.3"><rect x="796.0" y="-760.3" width="108.0" height="64.3" fill="url(#tg40)" /></mask><radialGradient id="tg36" gradientUnits="userSpaceOnUse" cx="847.92" cy="-756.25" r="36.92"><stop offset="0" stop-color="#fff" stop-opacity="1.000" /><stop offset="1" stop-color="#fff" stop-opacity="0.000" /></radialGradient><radialGradient id="tg38" gradientUnits="userSpaceOnUse" cx="847.92" cy="-756.25" r="36.92"><stop offset="0" stop-color="#fff" stop-opacity="1.000" /><stop offset="1" stop-color="#fff" stop-opacity="0.000" /></radialGradient><radialGradient id="tg40" gradientUnits="userSpaceOnUse" cx="847.92" cy="-756.25" r="35.6"><stop offset="0" stop-color="#fff" stop-opacity="1.000" /><stop offset="1" stop-color="#fff" stop-opacity="0.000" /></radialGradient></defs><path d="M818.75 -781.25 L885.42 -764.58 L839.58 -718.75 L818.75 -781.25 Z" fill="none" stroke="#000000" stroke-width="4.20" stroke-opacity="0.349" stroke-linecap="round" /><path d="M847.92 -756.25 L860.42 -800.0 L900.0 -800.0 L900.0 -704.17 L847.92 -756.25 Z" fill="#ff0043" fill-rule="evenodd" mask="url(#m37)" /><path d="M847.92 -756.25 L860.42 -800.0 L800.0 -800.0 L800.0 -739.58 L847.92 -756.25 Z" fill="#4fc700" fill-rule="evenodd" mask="url(#m39)" /><path d="M847.92 -756.25 L800.0 -739.58 L800.0 -700.0 L900.0 -700.0 L900.0 -704.17 L847.92 -756.25 Z" fill="#4f6bff" fill-rule="evenodd" mask="url(#m41)" /><path d="M812.5 -781.25 C812.5 -784.7 815.3 -787.5 818.75 -787.5 C822.2 -787.5 825.0 -784.7 825.0 -781.25 C825.0 -777.8 822.2 -775.0 818.75 -775.0 C815.3 -775.0 812.5 -777.8 812.5 -781.25 Z" fill="#327d00" fill-rule="evenodd" /><path d="M848.2 -756.29 L852.64 -772.92" fill="none" stroke="#000000" stroke-width="4.20" stroke-linecap="round" /><path d="M827.08 -748.51 L848.07 -756.01" fill="none" stroke="#000000" stroke-width="4.20" stroke-linecap="round" /><path d="M868.75 -735.41 L848.2 -755.96" fill="none" stroke="#000000" stroke-width="4.20" stroke-linecap="round" /><path d="M879.17 -764.58 C879.17 -768.03 881.97 -770.83 885.42 -770.83 C888.87 -770.83 891.67 -768.03 891.67 -764.58 C891.67 -761.13 888.87 -758.33 885.42 -758.33 C881.97 -758.33 879.17 -761.13 879.17 -764.58 Z" fill="#a20030" fill-rule="evenodd" /><path d="M833.33 -718.75 C833.33 -722.2 836.13 -725.0 839.58 -725.0 C843.03 -725.0 845.83 -722.2 845.83 -718.75 C845.83 -715.3 843.03 -712.5 839.58 -712.5 C836.13 -712.5 833.33 -715.3 833.33 -718.75 Z" fill="#002591" fill-rule="evenodd" /><path d="M806.13 -738.97 C805.31 -739.02 804.56 -739.55 804.27 -740.37 C803.88 -741.46 804.45 -742.66 805.54 -743.05 L826.38 -750.49 C827.47 -750.88 828.67 -750.31 829.06 -749.22 C829.45 -748.13 828.88 -746.92 827.79 -746.53 L806.95 -739.09 C806.68 -739.0 806.4 -738.96 806.13 -738.97 Z" fill="url(#g42)" fill-rule="nonzero" /><path d="M893.75 -708.32 C893.21 -708.32 892.67 -708.52 892.26 -708.93 L867.27 -733.93 C866.45 -734.75 866.45 -736.08 867.27 -736.9 C868.09 -737.72 869.41 -737.72 870.23 -736.9 L895.23 -711.9 C896.05 -711.08 896.05 -709.75 895.23 -708.93 C894.82 -708.52 894.28 -708.32 893.75 -708.32 Z" fill="url(#g43)" fill-rule="nonzero" /><path d="M852.72 -770.82 C852.52 -770.81 852.31 -770.83 852.1 -770.89 C850.98 -771.19 850.31 -772.34 850.61 -773.46 L856.16 -794.29 C856.46 -795.41 857.61 -796.08 858.73 -795.78 C859.85 -795.48 860.52 -794.33 860.22 -793.21 L854.67 -772.37 C854.42 -771.46 853.62 -770.85 852.72 -770.82 Z" fill="url(#g44)" fill-rule="nonzero" /></svg>