<svg xmlns="http://www.w3.org/2000/svg" viewBox="300 -800 100 100" width="24" height="24"><defs><linearGradient id="g13" gradientUnits="userSpaceOnUse" x1="381.25" y1="-716.67" x2="333.33" y2="-733.34"><stop offset="0.0000" stop-color="#b8b8b8" /><stop offset="1.0000" stop-color="#ffffff" /></linearGradient><linearGradient id="g14" gradientUnits="userSpaceOnUse" x1="318.75" y1="-783.34" x2="368.75" y2="-768.76"><stop offset="0.0000" stop-color="#757575" /><stop offset="1.0000" stop-color="#a5a5a5" /></linearGradient><linearGradient id="g15" gradientUnits="userSpaceOnUse" x1="370.83" y1="-775.01" x2="370.83" y2="-745.83"><stop offset="0" stop-color="#000000" stop-opacity="0.463" /><stop offset="1" stop-color="#000000" stop-opacity="0.118" /></linearGradient></defs><path d="M310.42 -714.59 L389.58 -714.59 L372.92 -731.26 L327.08 -731.26 L310.42 -714.59 Z" fill="url(#g13)" fill-rule="evenodd" stroke="#292929" stroke-width="4.20" stroke-linecap="round" stroke-linejoin="round" /><path d="M389.58 -785.42 L310.42 -785.42 L327.08 -768.76 L372.92 -768.76 L389.58 -785.42 Z" fill="url(#g14)" fill-rule="evenodd" stroke="#262626" stroke-width="4.20" stroke-linecap="round" stroke-linejoin="round" /><path d="M375.0 -775.01 L375.0 -725.01 L366.67 -725.01 L366.67 -775.01 L375.0 -775.01 Z" fill="#ed6b00" fill-rule="evenodd" /><path d="M366.67 -777.09 L363.19 -777.09 L356.25 -768.76 L356.25 -731.26 L363.19 -722.92 L366.67 -722.92 L366.67 -777.09 Z" fill="#ffda63" fill-rule="evenodd" /><path d="M356.25 -768.76 L366.67 -777.09 L377.08 -777.09 L377.08 -722.92 L364.58 -722.92 L356.25 -731.26 L356.25 -768.76 Z" fill="none" stroke="#250000" stroke-width="4.20" stroke-linejoin="round" /><path d="M354.17 -766.67 L366.67 -750.01 L375.0 -745.84 L375.0 -775.01 L364.58 -775.01 L354.17 -766.67 Z" fill="url(#g15)" fill-rule="evenodd" /></svg>