<svg xmlns="http://www.w3.org/2000/svg" viewBox="800 -900 100 100" width="24" height="24"><defs><radialGradient id="g65" gradientUnits="userSpaceOnUse" cx="831.25" cy="-868.78" r="73.89"><stop offset="0.0000" stop-color="#454545" /><stop offset="1.0000" stop-color="#000000" /></radialGradient><linearGradient id="g66" gradientUnits="userSpaceOnUse" x1="818.75" y1="-833.36" x2="839.58" y2="-797.94"><stop offset="0" stop-color="#ffffff" stop-opacity="0.000" /><stop offset="1" stop-color="#ffffff" stop-opacity="0.318" /></linearGradient><mask id="m68" maskUnits="userSpaceOnUse" x="800.1" y="-895.7" width="88.3" height="70.1"><rect x="800.1" y="-895.7" width="88.3" height="70.1" fill="url(#tg67)" /></mask><radialGradient id="tg67" gradientUnits="userSpaceOnUse" cx="829.18" cy="-889.59" r="60.43"><stop offset="0" stop-color="#fff" stop-opacity="0.718" /><stop offset="1" stop-color="#fff" stop-opacity="0.000" /></radialGradient></defs><path d="M826.04 -893.78 L802.08 -852.11 L826.04 -810.45 L873.96 -810.45 L897.92 -852.11 L873.96 -893.78 L826.04 -893.78 Z" fill="url(#g65)" fill-rule="evenodd" stroke="#000000" stroke-width="4.20" stroke-linejoin="round" /><path d="M828.13 -812.51 C827.38 -812.51 826.69 -812.91 826.31 -813.55 L815.62 -831.88 L819.25 -833.99 L829.33 -816.71 L870.67 -816.71 L891.32 -852.11 L879.4 -872.54 L883.03 -874.66 L895.56 -853.17 C895.95 -852.51 895.95 -851.71 895.56 -851.05 L873.69 -813.55 C873.31 -812.91 872.62 -812.51 871.87 -812.51 L828.13 -812.51 Z" fill="url(#g66)" fill-rule="nonzero" /><path d="M871.89 -891.69 C872.64 -891.69 873.33 -891.3 873.71 -890.65 L884.39 -872.33 L880.77 -870.21 L870.69 -887.49 L829.35 -887.49 L808.7 -852.09 L820.62 -831.66 L816.99 -829.54 L804.45 -851.04 C804.07 -851.69 804.07 -852.5 804.45 -853.15 L826.33 -890.65 C826.7 -891.3 827.39 -891.69 828.14 -891.69 L871.89 -891.69 Z" fill="#ffffff" fill-rule="nonzero" mask="url(#m68)" /><path d="M853.83 -818.07 C853.33 -818.11 852.83 -818.2 852.33 -818.36 L825.12 -827.17 C822.57 -828.0 820.83 -830.39 820.83 -833.07 L820.83 -862.45 C820.83 -864.35 821.7 -866.14 823.19 -867.32 L841.81 -882.01 C843.44 -883.29 845.59 -883.68 847.56 -883.04 L874.78 -874.23 C877.33 -873.4 879.07 -871.02 879.07 -868.33 L879.07 -838.95 C879.07 -837.05 878.2 -835.26 876.71 -834.08 L858.08 -819.39 C856.87 -818.43 855.35 -817.97 853.83 -818.07 Z M854.25 -823.46 L872.87 -838.15 L872.87 -867.53 L845.65 -876.34 L827.03 -861.65 L827.03 -832.27 L854.25 -823.46 Z" fill="#ffffff" fill-rule="nonzero" fill-opacity="0.298" /><path d="M827.08 -862.5 L827.08 -833.33 L854.29 -824.2 L872.92 -838.89 L872.92 -868.27 L845.83 -877.08 L827.08 -862.5 Z" fill="#ffffff" fill-rule="evenodd" fill-opacity="0.200" /><path d="M827.08 -862.39 L854.17 -854.17 L872.92 -868.27 L845.7 -877.08 L827.08 -862.39 Z" fill="#ffffff" fill-rule="evenodd" fill-opacity="0.800" /><path d="M827.08 -833.01 L854.29 -824.2 L854.17 -854.17 L827.08 -862.39 L827.08 -833.01 Z" fill="#ffffff" fill-rule="evenodd" fill-opacity="0.498" /><path d="M827.08 -862.39 L827.08 -833.01 L854.29 -824.2 L872.92 -838.89 L872.92 -868.27 L845.7 -877.08 L827.08 -862.39 Z" fill="none" stroke="#ffffff" stroke-width="4.13" /></svg>